<svg width="69" height="63" viewBox="0 0 69 63" fill="none" xmlns="http://www.w3.org/2000/svg">
<path d="M4.5 0.839996C2.019 0.839996 0 2.80516 0 5.22V13.98H1.5H67.5H69V11.06C69 8.64516 66.981 6.68 64.5 6.68L24.0674 6.68855C23.6489 6.54109 22.7834 5.19983 22.3184 4.47859C21.1679 2.69155 19.9755 0.839996 18 0.839996H4.5ZM1.5 16.9C0.672 16.9 0 17.5541 0 18.36V57.78C0 60.1992 2.0145 62.16 4.5 62.16H64.5C66.9855 62.16 69 60.1992 69 57.78V18.36C69 17.5541 68.328 16.9 67.5 16.9H1.5Z" fill="black"/>
</svg>
