<svg width="93" height="93" viewBox="0 0 93 93" fill="none" xmlns="http://www.w3.org/2000/svg">
<path d="M46.5 7.75C25.0984 7.75 7.75 25.0984 7.75 46.5C7.75 63.7186 18.9894 78.2963 34.5262 83.3435H58.4738C74.0106 78.2963 85.25 63.7186 85.25 46.5C85.25 25.0984 67.9016 7.75 46.5 7.75Z" fill="url(#paint0_linear_8_13)"/>
<path opacity="0.05" d="M58.1444 81.3672L58.125 70.1336C58.125 68.3143 57.6988 66.5376 56.8811 64.9276C67.8106 62.7324 73.129 56.2708 73.129 45.2096C73.129 40.8406 71.8406 36.983 69.3005 33.7396C69.4943 33.1254 69.6376 32.4899 69.7268 31.8389C70.091 29.1865 69.6822 27.4524 69.3528 26.0574L69.3005 25.8327C68.9401 24.2904 68.5081 23.1899 68.4906 23.1434L68.2756 22.5971L68.0605 22.0507L67.4754 21.9887L66.8883 21.9267C66.8883 21.9267 66.5028 21.886 65.9176 21.886C65.1058 21.886 63.9026 21.9674 62.7653 22.3529L62.3856 22.4808C60.9518 22.9633 59.5975 23.4205 57.7026 24.552C57.1485 24.8833 56.5421 25.2611 55.893 25.6835C52.9596 24.9569 49.8034 24.5869 46.5 24.5869C43.1636 24.5869 39.9803 24.9589 37.0276 25.6932C36.3708 25.2669 35.7604 24.8853 35.2024 24.552C33.3076 23.4205 31.9533 22.9652 30.5195 22.4808L30.1398 22.3529C29.0063 21.9674 27.8012 21.886 26.9894 21.886C26.4043 21.886 26.0187 21.9267 26.0187 21.9267L25.4336 21.9887L24.8523 22.0488L24.6353 22.5932L24.4164 23.1415C24.397 23.1919 23.9649 24.2924 23.6046 25.8366L23.5523 26.0594C23.2229 27.4524 22.8141 29.1884 23.1783 31.8389C23.2713 32.5093 23.4205 33.1661 23.6239 33.7978C21.1343 37.0256 19.8729 40.8619 19.8729 45.2096C19.8729 56.2437 25.1972 62.7014 36.1421 64.914C35.7663 65.6657 35.4737 66.4601 35.2664 67.2855C34.8847 67.4153 34.534 67.5025 34.224 67.5509C33.7629 67.6207 33.2804 67.6556 32.7922 67.6556C31.4631 67.6556 30.4188 67.3959 30.0119 67.1537C29.4054 66.7934 28.3224 65.7452 27.2723 64.2126C26.3752 62.9048 24.9763 61.194 23.4128 60.4791C22.0604 59.861 20.6286 59.5064 19.4816 59.5064C19.2142 59.5064 18.9681 59.5258 18.7531 59.5607C17.7514 59.7196 16.9144 60.2698 16.4591 61.0719C16.0658 61.7636 16.0038 62.5696 16.2886 63.2826C16.7129 64.3444 17.9374 65.1911 18.8906 65.7142C19.3595 65.9719 20.3728 66.9135 20.9638 67.8629C21.4074 68.5759 21.6128 69.0835 21.8976 69.7849C22.0662 70.2014 22.2522 70.6548 22.5041 71.2031C23.4147 73.1832 26.257 74.9309 26.5786 75.1227C28.1403 76.0585 30.7656 76.3588 32.6953 76.446L32.9336 76.4518H32.9356C33.4006 76.4518 34.0399 76.4072 34.8808 76.3142V81.3769C34.8847 82.4019 33.8404 82.6344 32.4589 82.6131L33.5188 82.9696C37.5778 84.4207 41.9372 85.25 46.5 85.25C51.0628 85.25 55.4222 84.4207 59.4871 82.9715L60.8491 82.4639C59.4716 82.4174 58.156 82.1926 58.1444 81.3672Z" fill="black"/>
<path opacity="0.07" d="M59.6382 82.9192C58.8516 83.0103 57.1563 82.708 57.1563 81.3789V70.1336C57.1563 68.014 56.5208 65.9661 55.3428 64.2204C66.8031 62.3662 72.1583 56.2902 72.1583 45.2096C72.1583 40.8754 70.8292 37.0837 68.2078 33.9295C68.4732 33.2223 68.6592 32.4764 68.7658 31.7072C69.1048 29.2349 68.7348 27.6656 68.4093 26.2803L68.3569 26.0555C68.0121 24.5811 67.6052 23.5426 67.5878 23.4999L67.3727 22.9536L66.7856 22.8916C66.7856 22.8916 66.4408 22.8548 65.9157 22.8548C65.1775 22.8548 64.0867 22.9264 63.0753 23.2713L62.6956 23.3992C61.3122 23.8661 60.0044 24.3059 58.1986 25.3832C57.5554 25.7668 56.8385 26.2183 56.0654 26.7278C53.0953 25.9509 49.8809 25.5556 46.5 25.5556C43.0861 25.5556 39.8447 25.9528 36.8532 26.7375C36.0724 26.2241 35.3516 25.7707 34.7045 25.3832C32.8988 24.3059 31.5909 23.8642 30.2076 23.3992L29.8278 23.2713C28.8184 22.9284 27.7256 22.8548 26.9874 22.8548C26.4624 22.8548 26.1175 22.8916 26.1175 22.8916L25.5324 22.9536L25.3134 23.5019C25.296 23.5445 24.8891 24.583 24.5443 26.0574L24.4919 26.2822C24.1645 27.6675 23.7944 29.2349 24.1354 31.7072C24.2439 32.4958 24.4377 33.2591 24.7128 33.9818C22.1418 37.1206 20.8398 40.8929 20.8398 45.2096C20.8398 56.2592 26.1989 62.3332 37.6689 64.2087C36.9036 65.3519 36.3688 66.6403 36.0937 68.014C35.4543 68.2659 34.875 68.4325 34.3674 68.51C33.8578 68.5875 33.3269 68.6262 32.7903 68.6262C31.4534 68.6262 30.1688 68.3763 29.5159 67.9888C28.6634 67.4831 27.4679 66.2179 26.4701 64.7629C25.792 63.7747 24.4416 62.0174 23.0059 61.3626C21.7756 60.8007 20.491 60.4771 19.4777 60.4771C19.2646 60.4771 19.0708 60.4926 18.9003 60.5197C18.1912 60.6321 17.6061 61.008 17.2961 61.5544C17.0481 61.9884 17.0074 62.4902 17.1818 62.9261C17.5286 63.7941 18.8131 64.573 19.3498 64.8675C19.9989 65.224 21.1304 66.309 21.7794 67.3553C22.2658 68.138 22.4963 68.7057 22.7889 69.4226C22.9536 69.8275 23.1338 70.2692 23.3779 70.8021C24.0192 72.1951 25.9993 73.6541 27.0688 74.2954C28.5297 75.1711 31.2422 75.4152 32.7302 75.4811L32.9453 75.485C33.5246 75.485 34.4953 75.3978 35.8418 75.2234V81.3789C35.8418 82.8882 33.9218 82.9482 33.4509 82.9482C33.3909 82.9482 34.4255 83.3047 34.4255 83.3047C38.2288 84.5525 42.2801 85.25 46.5 85.25C50.7199 85.25 54.7712 84.5525 58.5726 83.3067C58.5726 83.3067 59.6983 82.9114 59.6382 82.9192Z" fill="black"/>
<path d="M71.1915 45.2096C71.1915 40.734 69.6764 37.0218 67.0898 34.1116C67.3708 33.4819 67.6633 32.6372 67.8087 31.5754C68.1419 29.1536 67.7486 27.7004 67.4153 26.2783C67.0821 24.8562 66.6888 23.8564 66.6888 23.8564C66.6888 23.8564 64.9024 23.6743 63.3892 24.1897C61.876 24.7051 60.574 25.0984 58.6966 26.2183C57.8189 26.7414 56.9354 27.3149 56.236 27.7799C53.2464 26.9506 49.9585 26.5244 46.5 26.5244C43.0106 26.5244 39.6936 26.9526 36.6827 27.7876C35.9813 27.3207 35.092 26.7433 34.2085 26.2163C32.3311 25.0964 31.0291 24.7031 29.5159 24.1878C28.0027 23.6724 26.2163 23.8545 26.2163 23.8545C26.2163 23.8545 25.823 24.8543 25.4898 26.2764C25.1565 27.6985 24.7632 29.1516 25.0965 31.5735C25.2457 32.6624 25.5479 33.5226 25.8366 34.1562C23.2985 37.0489 21.8105 40.7379 21.8105 45.2077C21.8105 56.7998 28.0725 62.0911 39.4824 63.488C38.1513 64.8946 37.2582 66.6965 36.9578 68.7018C36.208 69.0312 35.3439 69.3412 34.5127 69.4652C32.3737 69.7887 30.1126 69.4652 29.0238 68.82C27.9349 68.1748 26.6426 66.7217 25.6738 65.3073C24.8562 64.1138 23.6763 62.7285 22.6068 62.2402C21.1943 61.5951 19.8207 61.3529 19.0553 61.473C18.2881 61.5951 17.9258 62.1589 18.0866 62.5638C18.2474 62.9668 19.0147 63.5732 19.8226 64.0169C20.6305 64.4606 21.8822 65.6716 22.6087 66.8418C23.4186 68.1477 23.5775 68.9014 24.2633 70.3932C24.7458 71.4434 26.3965 72.7551 27.5726 73.4603C28.582 74.0667 30.599 74.4116 32.7806 74.5104C33.5343 74.5453 35.3148 74.3244 36.8164 74.1113V81.3769C36.8164 82.615 35.683 83.5566 34.5088 83.3396C38.2773 84.6068 42.3015 85.25 46.5 85.25C50.6966 85.25 54.7208 84.6067 58.4932 83.3435C57.321 83.5586 56.1875 82.6169 56.1875 81.3789V70.1336C56.1875 67.5587 55.1665 65.2317 53.5273 63.4977C64.854 62.1376 71.1915 56.9722 71.1915 45.2096ZM21.7756 63.4086C21.4772 63.2555 21.3164 62.9726 21.4172 62.7731C21.5179 62.5735 21.8434 62.5367 22.1418 62.6897C22.4402 62.8428 22.601 63.1257 22.5002 63.3252C22.3995 63.5248 22.074 63.5616 21.7756 63.4086ZM24.1238 64.8714C23.9669 65.0419 23.6298 64.9876 23.3702 64.7512C23.1105 64.5149 23.0272 64.1836 23.1842 64.0131C23.3411 63.8426 23.6782 63.8968 23.9378 64.1332C24.1975 64.3696 24.2808 64.7009 24.1238 64.8714ZM25.5847 67.2932C25.3871 67.4327 25.0519 67.3029 24.8368 67.0026C24.6218 66.7023 24.6082 66.3439 24.8058 66.2044C25.0035 66.0649 25.3387 66.1947 25.5537 66.495C25.7668 66.7953 25.7823 67.1537 25.5847 67.2932ZM27.683 69.1164C27.5493 69.3334 27.1696 69.3431 26.8363 69.1397C26.5031 68.9363 26.3403 68.5952 26.474 68.3783C26.6077 68.1613 26.9875 68.1516 27.3207 68.355C27.654 68.5584 27.8167 68.8994 27.683 69.1164ZM29.667 70.9009C29.2543 70.8505 28.9482 70.5928 28.9831 70.3254C29.016 70.0581 29.3783 69.8837 29.7891 69.9341C30.2018 69.9844 30.5079 70.2421 30.473 70.5095C30.4401 70.7749 30.0797 70.9513 29.667 70.9009ZM32.8658 71.3639C32.426 71.3387 32.0831 71.0869 32.1005 70.804C32.118 70.5211 32.488 70.3099 32.9278 70.3351C33.3677 70.3603 33.7106 70.6122 33.6931 70.8951C33.6757 71.1799 33.3056 71.3891 32.8658 71.3639ZM35.8845 71.0617C35.4156 71.0617 35.0358 70.8176 35.0358 70.5173C35.0358 70.2169 35.4156 69.9728 35.8845 69.9728C36.3533 69.9728 36.7331 70.2169 36.7331 70.5173C36.7331 70.8176 36.3514 71.0617 35.8845 71.0617Z" fill="white"/>
<defs>
<linearGradient id="paint0_linear_8_13" x1="7.75" y1="45.5468" x2="85.25" y2="45.5468" gradientUnits="userSpaceOnUse">
<stop/>
<stop offset="1"/>
</linearGradient>
</defs>
</svg>
