<svg width="91" height="91" viewBox="0 0 91 91" fill="none" xmlns="http://www.w3.org/2000/svg">
<path d="M91 49.2916C91 61.861 80.8194 72.0416 68.25 72.0416C64.8375 72.0416 21.4988 72.0416 18.0104 72.0416C8.05729 72.0416 0 63.9843 0 54.0312C0 45.4241 6.02875 38.2199 14.124 36.4378C17.3469 23.148 29.3096 13.2708 43.6042 13.2708C54.0502 13.2708 63.245 18.5412 68.705 26.5605C81.0658 26.788 91 36.8739 91 49.2916Z" fill="url(#paint0_linear_2_4)"/>
<path opacity="0.05" d="M51.1875 47.3958V34.1249C51.1875 32.03 49.4907 30.3333 47.3958 30.3333H43.6042C41.5093 30.3333 39.8125 32.03 39.8125 34.1249V47.3958H34.7923C32.2595 47.3958 30.9893 50.4594 32.7809 52.251L42.8193 62.2894C44.2999 63.7701 46.7001 63.7701 48.1807 62.2894L58.2192 52.251C60.0107 50.4594 58.7424 47.3958 56.2077 47.3958H51.1875Z" fill="black"/>
<path opacity="0.07" d="M50.2396 48.3438V34.125C50.2396 32.5552 48.9656 31.2812 47.3958 31.2812H43.6042C42.0344 31.2812 40.7604 32.5552 40.7604 34.125V48.3438H35.0331C33.2548 48.3438 32.3638 50.4936 33.6207 51.7525L43.3444 61.4781C44.5331 62.6668 46.4612 62.6668 47.6499 61.4781L57.3736 51.7525C58.6305 50.4955 57.7414 48.3438 55.9612 48.3438H50.2396Z" fill="black"/>
<path d="M55.7242 49.2917H49.2917V34.1251C49.2917 33.0786 48.4423 32.2292 47.3958 32.2292H43.6042C42.5577 32.2292 41.7083 33.0786 41.7083 34.1251V49.2917H35.2758C34.252 49.2917 33.7401 50.5297 34.4643 51.252L43.8753 60.663C44.772 61.5597 46.228 61.5597 47.1247 60.663L56.5356 51.252C57.2598 50.5297 56.748 49.2917 55.7242 49.2917Z" fill="white"/>
<defs>
<linearGradient id="paint0_linear_2_4" x1="27.0005" y1="15.8453" x2="57.2011" y2="73.3592" gradientUnits="userSpaceOnUse">
<stop stop-color="#C1DBED"/>
<stop offset="1" stop-color="#8092A0"/>
</linearGradient>
</defs>
</svg>
