<svg width="84" height="87" viewBox="0 0 84 87" fill="none" xmlns="http://www.w3.org/2000/svg">
<path d="M39.6115 55.8743C39.0851 56.4195 38.3739 56.724 37.6319 56.724C36.8899 56.724 36.1759 56.4195 35.6523 55.8743L25.9839 45.8606C24.8891 44.7267 24.8891 42.8939 25.9839 41.76C27.0787 40.6261 28.8484 40.6261 29.9431 41.76L37.6319 49.7234L71.8871 14.2419C70.8903 12.6556 69.1655 11.6 67.1999 11.6H16.8C13.706 11.6 11.2 14.1955 11.2 17.4V69.6C11.2 72.8045 13.706 75.4 16.8 75.4H67.1999C70.2939 75.4 72.7999 72.8045 72.7999 69.6V21.5006L39.6115 55.8743Z" fill="black"/>
</svg>
